<svg width="44" height="13" viewBox="0 0 44 13" fill="none" xmlns="http://www.w3.org/2000/svg">
<path d="M0.0390625 7.70312C0.0390625 7.07292 0.117188 6.49479 0.273438 5.96875C0.434896 5.4375 0.661458 4.98177 0.953125 4.60156C1.25 4.22135 1.60677 3.92448 2.02344 3.71094C2.4401 3.4974 2.90625 3.39062 3.42188 3.39062C3.92708 3.39062 4.36719 3.47656 4.74219 3.64844C5.1224 3.8151 5.45052 4.0599 5.72656 4.38281V0H7.17188V12H5.84375L5.78125 11.1094C5.5 11.4531 5.16406 11.7135 4.77344 11.8906C4.38281 12.0677 3.92708 12.1562 3.40625 12.1562C2.89583 12.1562 2.43229 12.0469 2.01562 11.8281C1.60417 11.6094 1.2526 11.3073 0.960938 10.9219C0.669271 10.5365 0.442708 10.0833 0.28125 9.5625C0.119792 9.03646 0.0390625 8.47135 0.0390625 7.86719V7.70312ZM1.48438 7.86719C1.48438 8.27865 1.52865 8.66927 1.61719 9.03906C1.70573 9.40885 1.84115 9.73438 2.02344 10.0156C2.21094 10.2969 2.44792 10.5208 2.73438 10.6875C3.02083 10.849 3.36458 10.9297 3.76562 10.9297C4.01042 10.9297 4.23177 10.901 4.42969 10.8438C4.6276 10.7865 4.80729 10.7057 4.96875 10.6016C5.13021 10.4922 5.27344 10.3646 5.39844 10.2188C5.52344 10.0677 5.63281 9.90104 5.72656 9.71875V5.79688C5.53906 5.45312 5.28646 5.17188 4.96875 4.95312C4.65104 4.72917 4.25521 4.61719 3.78125 4.61719C3.375 4.61719 3.02604 4.70052 2.73438 4.86719C2.44792 5.03385 2.21094 5.26042 2.02344 5.54688C1.84115 5.82812 1.70573 6.15625 1.61719 6.53125C1.52865 6.90104 1.48438 7.29167 1.48438 7.70312V7.86719ZM13.6562 12.1562C13.0625 12.1562 12.5156 12.0547 12.0156 11.8516C11.5208 11.6484 11.0964 11.3646 10.7422 11C10.388 10.6354 10.112 10.2031 9.91406 9.70312C9.71615 9.20312 9.61719 8.65885 9.61719 8.07031V7.74219C9.61719 7.0599 9.72656 6.45052 9.94531 5.91406C10.1641 5.3724 10.4531 4.91667 10.8125 4.54688C11.1771 4.17188 11.5885 3.88542 12.0469 3.6875C12.5104 3.48958 12.9844 3.39062 13.4688 3.39062C14.0781 3.39062 14.6094 3.4974 15.0625 3.71094C15.5208 3.91927 15.901 4.21094 16.2031 4.58594C16.5052 4.95573 16.7292 5.39323 16.875 5.89844C17.026 6.40365 17.1016 6.95052 17.1016 7.53906V8.1875H11.0625C11.0781 8.57292 11.151 8.9349 11.2812 9.27344C11.4167 9.61198 11.599 9.90885 11.8281 10.1641C12.0625 10.4141 12.3411 10.612 12.6641 10.7578C12.987 10.9036 13.3438 10.9766 13.7344 10.9766C14.25 10.9766 14.7083 10.8724 15.1094 10.6641C15.5104 10.4557 15.8438 10.1797 16.1094 9.83594L16.9922 10.5234C16.8516 10.737 16.6745 10.9427 16.4609 11.1406C16.2526 11.3333 16.0104 11.5052 15.7344 11.6562C15.4583 11.8073 15.1458 11.9271 14.7969 12.0156C14.4479 12.1094 14.0677 12.1562 13.6562 12.1562ZM13.4688 4.57812C13.1771 4.57812 12.901 4.63281 12.6406 4.74219C12.3802 4.84635 12.1458 5.0026 11.9375 5.21094C11.7292 5.41406 11.5521 5.66667 11.4062 5.96875C11.2656 6.26562 11.1667 6.60938 11.1094 7H15.6562V6.89062C15.6406 6.60938 15.5859 6.33073 15.4922 6.05469C15.4036 5.77865 15.2708 5.53125 15.0938 5.3125C14.9167 5.09375 14.6927 4.91667 14.4219 4.78125C14.1562 4.64583 13.8385 4.57812 13.4688 4.57812ZM20.1953 3.54688L20.2344 4.34375C20.4062 4.04688 20.6302 3.8151 20.9062 3.64844C21.1875 3.48177 21.526 3.39583 21.9219 3.39062C22.6979 3.39062 23.2161 3.69271 23.4766 4.29688C23.6432 4.02604 23.862 3.8099 24.1328 3.64844C24.4089 3.48177 24.7422 3.39583 25.1328 3.39062C25.7526 3.39062 26.2292 3.58073 26.5625 3.96094C26.8958 4.34115 27.0625 4.91667 27.0625 5.6875V12H25.6875V5.67188C25.6875 4.96354 25.362 4.61198 24.7109 4.61719C24.5391 4.61719 24.3906 4.64062 24.2656 4.6875C24.1406 4.73438 24.0365 4.79948 23.9531 4.88281C23.8698 4.96094 23.8047 5.05469 23.7578 5.16406C23.7109 5.26823 23.6797 5.3776 23.6641 5.49219V12H22.2891V5.66406C22.2891 5.32552 22.2135 5.0651 22.0625 4.88281C21.9115 4.70052 21.6719 4.61198 21.3438 4.61719C21.0417 4.61719 20.8073 4.67708 20.6406 4.79688C20.474 4.91667 20.3516 5.07552 20.2734 5.27344V12H18.8984V3.54688H20.1953ZM28.7344 7.69531C28.7344 7.08594 28.8229 6.52083 29 6C29.1771 5.47396 29.4297 5.01823 29.7578 4.63281C30.0911 4.2474 30.4948 3.94531 30.9688 3.72656C31.4427 3.5026 31.9766 3.39062 32.5703 3.39062C33.1693 3.39062 33.7057 3.5026 34.1797 3.72656C34.6589 3.94531 35.0625 4.2474 35.3906 4.63281C35.724 5.01823 35.9792 5.47396 36.1562 6C36.3333 6.52083 36.4219 7.08594 36.4219 7.69531V7.86719C36.4219 8.47656 36.3333 9.04167 36.1562 9.5625C35.9792 10.0833 35.724 10.5365 35.3906 10.9219C35.0625 11.3073 34.6615 11.6094 34.1875 11.8281C33.7135 12.0469 33.1797 12.1562 32.5859 12.1562C31.987 12.1562 31.4479 12.0469 30.9688 11.8281C30.4948 11.6094 30.0911 11.3073 29.7578 10.9219C29.4297 10.5365 29.1771 10.0833 29 9.5625C28.8229 9.04167 28.7344 8.47656 28.7344 7.86719V7.69531ZM30.1797 7.86719C30.1797 8.28385 30.2292 8.68229 30.3281 9.0625C30.4271 9.4375 30.5755 9.76823 30.7734 10.0547C30.9766 10.3411 31.2292 10.5677 31.5312 10.7344C31.8333 10.901 32.1849 10.9844 32.5859 10.9844C32.9818 10.9844 33.3281 10.901 33.625 10.7344C33.9271 10.5677 34.1771 10.3411 34.375 10.0547C34.5781 9.76823 34.7292 9.4375 34.8281 9.0625C34.9271 8.68229 34.9766 8.28385 34.9766 7.86719V7.69531C34.9766 7.28385 34.9245 6.89062 34.8203 6.51562C34.7214 6.13542 34.5703 5.80208 34.3672 5.51562C34.1693 5.22917 33.9193 5.0026 33.6172 4.83594C33.3203 4.66406 32.9714 4.57812 32.5703 4.57812C32.1693 4.57812 31.8203 4.66406 31.5234 4.83594C31.2266 5.0026 30.9766 5.22917 30.7734 5.51562C30.5755 5.80208 30.4271 6.13542 30.3281 6.51562C30.2292 6.89062 30.1797 7.28385 30.1797 7.69531V7.86719ZM41.6562 11.0625C41.6562 10.9062 41.6797 10.7604 41.7266 10.625C41.7786 10.4896 41.8516 10.3724 41.9453 10.2734C42.0391 10.1693 42.1562 10.0885 42.2969 10.0312C42.4375 9.97396 42.6016 9.94531 42.7891 9.94531C42.9766 9.94531 43.1406 9.97396 43.2812 10.0312C43.4271 10.0885 43.5469 10.1693 43.6406 10.2734C43.7396 10.3724 43.8125 10.4896 43.8594 10.625C43.9115 10.7604 43.9375 10.9062 43.9375 11.0625C43.9375 11.2135 43.9115 11.3568 43.8594 11.4922C43.8125 11.6224 43.7396 11.737 43.6406 11.8359C43.5469 11.9349 43.4271 12.0104 43.2812 12.0625C43.1406 12.1198 42.9766 12.1484 42.7891 12.1484C42.6016 12.1484 42.4375 12.1198 42.2969 12.0625C42.1562 12.0104 42.0391 11.9349 41.9453 11.8359C41.8516 11.737 41.7786 11.6224 41.7266 11.4922C41.6797 11.3568 41.6562 11.2135 41.6562 11.0625ZM41.6562 4.21875C41.6562 4.0625 41.6797 3.91667 41.7266 3.78125C41.7786 3.64583 41.8516 3.52865 41.9453 3.42969C42.0391 3.32552 42.1562 3.24479 42.2969 3.1875C42.4375 3.13021 42.6016 3.10156 42.7891 3.10156C42.9766 3.10156 43.1406 3.13021 43.2812 3.1875C43.4271 3.24479 43.5469 3.32552 43.6406 3.42969C43.7396 3.52865 43.8125 3.64583 43.8594 3.78125C43.9115 3.91667 43.9375 4.0625 43.9375 4.21875C43.9375 4.36979 43.9115 4.51302 43.8594 4.64844C43.8125 4.77865 43.7396 4.89323 43.6406 4.99219C43.5469 5.09115 43.4271 5.16927 43.2812 5.22656C43.1406 5.27865 42.9766 5.30469 42.7891 5.30469C42.6016 5.30469 42.4375 5.27865 42.2969 5.22656C42.1562 5.16927 42.0391 5.09115 41.9453 4.99219C41.8516 4.89323 41.7786 4.77865 41.7266 4.64844C41.6797 4.51302 41.6562 4.36979 41.6562 4.21875Z" fill="#808082"/>
</svg>
