<svg width="112" height="13" viewBox="0 0 112 16" fill="none" xmlns="http://www.w3.org/2000/svg">
<path d="M0.773438 7.70312C0.773438 7.07292 0.851562 6.49479 1.00781 5.96875C1.16927 5.4375 1.39583 4.98177 1.6875 4.60156C1.98438 4.22135 2.34115 3.92448 2.75781 3.71094C3.17448 3.4974 3.64062 3.39062 4.15625 3.39062C4.66146 3.39062 5.10156 3.47656 5.47656 3.64844C5.85677 3.8151 6.1849 4.0599 6.46094 4.38281V0H7.90625V12H6.57812L6.51562 11.1094C6.23438 11.4531 5.89844 11.7135 5.50781 11.8906C5.11719 12.0677 4.66146 12.1562 4.14062 12.1562C3.63021 12.1562 3.16667 12.0469 2.75 11.8281C2.33854 11.6094 1.98698 11.3073 1.69531 10.9219C1.40365 10.5365 1.17708 10.0833 1.01562 9.5625C0.854167 9.03646 0.773438 8.47135 0.773438 7.86719V7.70312ZM2.21875 7.86719C2.21875 8.27865 2.26302 8.66927 2.35156 9.03906C2.4401 9.40885 2.57552 9.73438 2.75781 10.0156C2.94531 10.2969 3.18229 10.5208 3.46875 10.6875C3.75521 10.849 4.09896 10.9297 4.5 10.9297C4.74479 10.9297 4.96615 10.901 5.16406 10.8438C5.36198 10.7865 5.54167 10.7057 5.70312 10.6016C5.86458 10.4922 6.00781 10.3646 6.13281 10.2188C6.25781 10.0677 6.36719 9.90104 6.46094 9.71875V5.79688C6.27344 5.45312 6.02083 5.17188 5.70312 4.95312C5.38542 4.72917 4.98958 4.61719 4.51562 4.61719C4.10938 4.61719 3.76042 4.70052 3.46875 4.86719C3.18229 5.03385 2.94531 5.26042 2.75781 5.54688C2.57552 5.82812 2.4401 6.15625 2.35156 6.53125C2.26302 6.90104 2.21875 7.29167 2.21875 7.70312V7.86719ZM14.3906 12.1562C13.7969 12.1562 13.25 12.0547 12.75 11.8516C12.2552 11.6484 11.8307 11.3646 11.4766 11C11.1224 10.6354 10.8464 10.2031 10.6484 9.70312C10.4505 9.20312 10.3516 8.65885 10.3516 8.07031V7.74219C10.3516 7.0599 10.4609 6.45052 10.6797 5.91406C10.8984 5.3724 11.1875 4.91667 11.5469 4.54688C11.9115 4.17188 12.3229 3.88542 12.7812 3.6875C13.2448 3.48958 13.7188 3.39062 14.2031 3.39062C14.8125 3.39062 15.3438 3.4974 15.7969 3.71094C16.2552 3.91927 16.6354 4.21094 16.9375 4.58594C17.2396 4.95573 17.4635 5.39323 17.6094 5.89844C17.7604 6.40365 17.8359 6.95052 17.8359 7.53906V8.1875H11.7969C11.8125 8.57292 11.8854 8.9349 12.0156 9.27344C12.151 9.61198 12.3333 9.90885 12.5625 10.1641C12.7969 10.4141 13.0755 10.612 13.3984 10.7578C13.7214 10.9036 14.0781 10.9766 14.4688 10.9766C14.9844 10.9766 15.4427 10.8724 15.8438 10.6641C16.2448 10.4557 16.5781 10.1797 16.8438 9.83594L17.7266 10.5234C17.5859 10.737 17.4089 10.9427 17.1953 11.1406C16.987 11.3333 16.7448 11.5052 16.4688 11.6562C16.1927 11.8073 15.8802 11.9271 15.5312 12.0156C15.1823 12.1094 14.8021 12.1562 14.3906 12.1562ZM14.2031 4.57812C13.9115 4.57812 13.6354 4.63281 13.375 4.74219C13.1146 4.84635 12.8802 5.0026 12.6719 5.21094C12.4635 5.41406 12.2865 5.66667 12.1406 5.96875C12 6.26562 11.901 6.60938 11.8438 7H16.3906V6.89062C16.375 6.60938 16.3203 6.33073 16.2266 6.05469C16.138 5.77865 16.0052 5.53125 15.8281 5.3125C15.651 5.09375 15.4271 4.91667 15.1562 4.78125C14.8906 4.64583 14.5729 4.57812 14.2031 4.57812ZM25.8828 9.75781C25.8828 9.58594 25.849 9.43229 25.7812 9.29688C25.7135 9.15625 25.599 9.02865 25.4375 8.91406C25.276 8.79948 25.0625 8.69531 24.7969 8.60156C24.5312 8.5026 24.2005 8.41406 23.8047 8.33594C23.3203 8.23698 22.8776 8.11719 22.4766 7.97656C22.0807 7.83594 21.7396 7.66927 21.4531 7.47656C21.1719 7.27865 20.9531 7.04948 20.7969 6.78906C20.6406 6.52344 20.5625 6.21615 20.5625 5.86719C20.5625 5.52344 20.6432 5.20312 20.8047 4.90625C20.9661 4.60417 21.1927 4.34115 21.4844 4.11719C21.776 3.89323 22.1224 3.71615 22.5234 3.58594C22.9297 3.45573 23.375 3.39062 23.8594 3.39062C24.3802 3.39062 24.849 3.45833 25.2656 3.59375C25.6823 3.72917 26.0365 3.91667 26.3281 4.15625C26.6198 4.39583 26.8438 4.67708 27 5C27.1615 5.31771 27.2422 5.66146 27.2422 6.03125H25.7969C25.7969 5.84896 25.75 5.67188 25.6562 5.5C25.5625 5.32292 25.4323 5.16667 25.2656 5.03125C25.099 4.89583 24.8958 4.78646 24.6562 4.70312C24.4219 4.61979 24.1562 4.57812 23.8594 4.57812C23.5521 4.57812 23.2812 4.61198 23.0469 4.67969C22.8177 4.7474 22.625 4.83854 22.4688 4.95312C22.3177 5.06771 22.2031 5.20052 22.125 5.35156C22.0469 5.5026 22.0078 5.65885 22.0078 5.82031C22.0078 5.98698 22.0391 6.13542 22.1016 6.26562C22.1641 6.39583 22.2708 6.51302 22.4219 6.61719C22.5781 6.72135 22.7839 6.8151 23.0391 6.89844C23.2995 6.98177 23.6276 7.0625 24.0234 7.14062C24.5443 7.25 25.0104 7.3776 25.4219 7.52344C25.8333 7.66406 26.1797 7.83594 26.4609 8.03906C26.7422 8.23698 26.9557 8.46875 27.1016 8.73438C27.2526 9 27.3281 9.30729 27.3281 9.65625C27.3281 10.0312 27.2422 10.3724 27.0703 10.6797C26.9036 10.987 26.6693 11.25 26.3672 11.4688C26.0651 11.6875 25.7031 11.8568 25.2812 11.9766C24.8594 12.0964 24.3984 12.1562 23.8984 12.1562C23.3255 12.1562 22.8151 12.0807 22.3672 11.9297C21.9193 11.7734 21.5391 11.5703 21.2266 11.3203C20.9193 11.0651 20.6823 10.7708 20.5156 10.4375C20.3542 10.1042 20.2734 9.75781 20.2734 9.39844H21.7188C21.7396 9.69531 21.8177 9.94531 21.9531 10.1484C22.0938 10.3516 22.2656 10.5156 22.4688 10.6406C22.6771 10.7656 22.9062 10.8542 23.1562 10.9062C23.4062 10.9583 23.6536 10.9844 23.8984 10.9844C24.5078 10.9844 24.9896 10.8724 25.3438 10.6484C25.6979 10.4245 25.8776 10.1276 25.8828 9.75781ZM33.4766 10.9844C33.737 10.9844 33.9896 10.9427 34.2344 10.8594C34.4844 10.776 34.7057 10.6615 34.8984 10.5156C35.0911 10.3646 35.2448 10.1901 35.3594 9.99219C35.4792 9.78906 35.5417 9.57031 35.5469 9.33594H36.9141C36.9089 9.71094 36.8099 10.0703 36.6172 10.4141C36.4297 10.7526 36.1771 11.0521 35.8594 11.3125C35.5417 11.5677 35.1771 11.7734 34.7656 11.9297C34.3542 12.0807 33.9245 12.1562 33.4766 12.1562C32.8359 12.1562 32.276 12.0417 31.7969 11.8125C31.3177 11.5833 30.9167 11.276 30.5938 10.8906C30.276 10.5 30.0365 10.0521 29.875 9.54688C29.7135 9.03646 29.6328 8.5 29.6328 7.9375V7.60938C29.6328 7.05208 29.7135 6.51823 29.875 6.00781C30.0365 5.4974 30.276 5.04948 30.5938 4.66406C30.9167 4.27344 31.3177 3.96354 31.7969 3.73438C32.276 3.50521 32.8359 3.39062 33.4766 3.39062C33.9766 3.39062 34.4349 3.47135 34.8516 3.63281C35.2734 3.78906 35.6354 4.00521 35.9375 4.28125C36.2448 4.55208 36.4844 4.875 36.6562 5.25C36.8281 5.625 36.9141 6.02604 36.9141 6.45312H35.5469C35.5417 6.19792 35.4844 5.95833 35.375 5.73438C35.2708 5.50521 35.1276 5.30469 34.9453 5.13281C34.763 4.96094 34.5443 4.82552 34.2891 4.72656C34.0391 4.6276 33.7682 4.57812 33.4766 4.57812C33.0286 4.57812 32.651 4.66927 32.3438 4.85156C32.0417 5.02865 31.7969 5.26302 31.6094 5.55469C31.4219 5.84115 31.2865 6.16406 31.2031 6.52344C31.125 6.88281 31.0859 7.24479 31.0859 7.60938V7.9375C31.0859 8.30729 31.125 8.67448 31.2031 9.03906C31.2865 9.39844 31.4193 9.72396 31.6016 10.0156C31.7891 10.3021 32.0339 10.5365 32.3359 10.7188C32.6432 10.8958 33.0234 10.9844 33.4766 10.9844ZM45.0234 3.39062C45.1589 3.39062 45.2995 3.39583 45.4453 3.40625C45.5911 3.41146 45.7292 3.42448 45.8594 3.44531C45.9948 3.46094 46.1172 3.48177 46.2266 3.50781C46.3411 3.53385 46.4349 3.5625 46.5078 3.59375L46.3125 5.00781C46.0312 4.94531 45.763 4.90104 45.5078 4.875C45.2578 4.84375 44.9948 4.82812 44.7188 4.82812C44.0417 4.82812 43.4922 4.98177 43.0703 5.28906C42.6536 5.59635 42.3464 6.02604 42.1484 6.57812V12H40.6953V3.54688H42.0703L42.1406 4.89062C42.4844 4.42708 42.8958 4.0625 43.375 3.79688C43.8594 3.52604 44.4089 3.39062 45.0234 3.39062ZM49.3203 3.54688H53.6406V10.75H56.3984V12H49.3203V10.75H52.1953V4.80469H49.3203V3.54688ZM52.0078 1.32812C52.0078 1.08854 52.0781 0.888021 52.2188 0.726562C52.3646 0.559896 52.5833 0.476562 52.875 0.476562C53.1615 0.476562 53.3776 0.559896 53.5234 0.726562C53.6693 0.888021 53.7422 1.08854 53.7422 1.32812C53.7422 1.5625 53.6693 1.75781 53.5234 1.91406C53.3776 2.07031 53.1615 2.14844 52.875 2.14844C52.5833 2.14844 52.3646 2.07031 52.2188 1.91406C52.0781 1.75781 52.0078 1.5625 52.0078 1.32812ZM65.8359 7.86719C65.8359 8.47135 65.763 9.03646 65.6172 9.5625C65.4714 10.0833 65.2578 10.5365 64.9766 10.9219C64.6953 11.3073 64.3464 11.6094 63.9297 11.8281C63.5182 12.0469 63.0469 12.1562 62.5156 12.1562C62 12.1562 61.5443 12.0729 61.1484 11.9062C60.7578 11.7396 60.4219 11.5 60.1406 11.1875V15.25H58.6953V3.54688H60.0156L60.0859 4.46875C60.3672 4.11979 60.7057 3.85417 61.1016 3.67188C61.5026 3.48438 61.9661 3.39062 62.4922 3.39062C63.0339 3.39062 63.513 3.4974 63.9297 3.71094C64.3464 3.92448 64.6953 4.22135 64.9766 4.60156C65.2578 4.98177 65.4714 5.4375 65.6172 5.96875C65.763 6.49479 65.8359 7.07292 65.8359 7.70312V7.86719ZM64.3906 7.70312C64.3906 7.29167 64.3438 6.90104 64.25 6.53125C64.1615 6.15625 64.0208 5.82812 63.8281 5.54688C63.6406 5.26042 63.401 5.03385 63.1094 4.86719C62.8177 4.70052 62.4688 4.61719 62.0625 4.61719C61.599 4.61719 61.2083 4.72656 60.8906 4.94531C60.5781 5.15885 60.3281 5.4349 60.1406 5.77344V9.84375C60.3281 10.1771 60.5781 10.4505 60.8906 10.6641C61.2031 10.8724 61.599 10.9766 62.0781 10.9766C62.4792 10.9766 62.8255 10.8932 63.1172 10.7266C63.4089 10.5547 63.6484 10.3255 63.8359 10.0391C64.0234 9.7526 64.1615 9.42188 64.25 9.04688C64.3438 8.67188 64.3906 8.27865 64.3906 7.86719V7.70312ZM71.7344 1.5V3.54688H74.9531V4.66406H71.7344V9.25781C71.7344 9.58594 71.776 9.85677 71.8594 10.0703C71.9427 10.2839 72.0573 10.4557 72.2031 10.5859C72.349 10.7109 72.5156 10.7995 72.7031 10.8516C72.8958 10.9036 73.099 10.9297 73.3125 10.9297C73.4688 10.9297 73.6302 10.9219 73.7969 10.9062C73.9635 10.8854 74.125 10.862 74.2812 10.8359C74.4427 10.8099 74.5911 10.7839 74.7266 10.7578C74.8672 10.7266 74.9818 10.7005 75.0703 10.6797L75.2734 11.7031C75.1536 11.776 75.0078 11.8411 74.8359 11.8984C74.6641 11.9505 74.4766 11.9948 74.2734 12.0312C74.0703 12.0729 73.8542 12.1042 73.625 12.125C73.401 12.1458 73.1771 12.1562 72.9531 12.1562C72.5781 12.1562 72.2266 12.1042 71.8984 12C71.5755 11.8906 71.2943 11.7214 71.0547 11.4922C70.8151 11.2578 70.625 10.9583 70.4844 10.5938C70.349 10.224 70.2812 9.77865 70.2812 9.25781V4.66406H68.0625V3.54688H70.2812V1.5H71.7344ZM78.1484 3.54688H82.4688V10.75H85.2266V12H78.1484V10.75H81.0234V4.80469H78.1484V3.54688ZM80.8359 1.32812C80.8359 1.08854 80.9062 0.888021 81.0469 0.726562C81.1927 0.559896 81.4115 0.476562 81.7031 0.476562C81.9896 0.476562 82.2057 0.559896 82.3516 0.726562C82.4974 0.888021 82.5703 1.08854 82.5703 1.32812C82.5703 1.5625 82.4974 1.75781 82.3516 1.91406C82.2057 2.07031 81.9896 2.14844 81.7031 2.14844C81.4115 2.14844 81.1927 2.07031 81.0469 1.91406C80.9062 1.75781 80.8359 1.5625 80.8359 1.32812ZM87.125 7.69531C87.125 7.08594 87.2135 6.52083 87.3906 6C87.5677 5.47396 87.8203 5.01823 88.1484 4.63281C88.4818 4.2474 88.8854 3.94531 89.3594 3.72656C89.8333 3.5026 90.3672 3.39062 90.9609 3.39062C91.5599 3.39062 92.0964 3.5026 92.5703 3.72656C93.0495 3.94531 93.4531 4.2474 93.7812 4.63281C94.1146 5.01823 94.3698 5.47396 94.5469 6C94.724 6.52083 94.8125 7.08594 94.8125 7.69531V7.86719C94.8125 8.47656 94.724 9.04167 94.5469 9.5625C94.3698 10.0833 94.1146 10.5365 93.7812 10.9219C93.4531 11.3073 93.0521 11.6094 92.5781 11.8281C92.1042 12.0469 91.5703 12.1562 90.9766 12.1562C90.3776 12.1562 89.8385 12.0469 89.3594 11.8281C88.8854 11.6094 88.4818 11.3073 88.1484 10.9219C87.8203 10.5365 87.5677 10.0833 87.3906 9.5625C87.2135 9.04167 87.125 8.47656 87.125 7.86719V7.69531ZM88.5703 7.86719C88.5703 8.28385 88.6198 8.68229 88.7188 9.0625C88.8177 9.4375 88.9661 9.76823 89.1641 10.0547C89.3672 10.3411 89.6198 10.5677 89.9219 10.7344C90.224 10.901 90.5755 10.9844 90.9766 10.9844C91.3724 10.9844 91.7188 10.901 92.0156 10.7344C92.3177 10.5677 92.5677 10.3411 92.7656 10.0547C92.9688 9.76823 93.1198 9.4375 93.2188 9.0625C93.3177 8.68229 93.3672 8.28385 93.3672 7.86719V7.69531C93.3672 7.28385 93.3151 6.89062 93.2109 6.51562C93.112 6.13542 92.9609 5.80208 92.7578 5.51562C92.5599 5.22917 92.3099 5.0026 92.0078 4.83594C91.7109 4.66406 91.362 4.57812 90.9609 4.57812C90.5599 4.57812 90.2109 4.66406 89.9141 4.83594C89.6172 5.0026 89.3672 5.22917 89.1641 5.51562C88.9661 5.80208 88.8177 6.13542 88.7188 6.51562C88.6198 6.89062 88.5703 7.28385 88.5703 7.69531V7.86719ZM98.4375 3.54688L98.5391 4.79688C98.8464 4.35938 99.224 4.01823 99.6719 3.77344C100.12 3.52344 100.62 3.39583 101.172 3.39062C101.615 3.39062 102.016 3.45312 102.375 3.57812C102.74 3.70312 103.049 3.89844 103.305 4.16406C103.56 4.42969 103.755 4.76823 103.891 5.17969C104.031 5.58594 104.102 6.07031 104.102 6.63281V12H102.656V6.66406C102.656 6.28906 102.615 5.97135 102.531 5.71094C102.448 5.45052 102.323 5.23958 102.156 5.07812C101.995 4.91667 101.794 4.79948 101.555 4.72656C101.32 4.65365 101.049 4.61719 100.742 4.61719C100.258 4.61719 99.8307 4.73958 99.4609 4.98438C99.0964 5.22396 98.8047 5.54167 98.5859 5.9375V12H97.1406V3.54688H98.4375ZM109.656 11.0625C109.656 10.9062 109.68 10.7604 109.727 10.625C109.779 10.4896 109.852 10.3724 109.945 10.2734C110.039 10.1693 110.156 10.0885 110.297 10.0312C110.438 9.97396 110.602 9.94531 110.789 9.94531C110.977 9.94531 111.141 9.97396 111.281 10.0312C111.427 10.0885 111.547 10.1693 111.641 10.2734C111.74 10.3724 111.812 10.4896 111.859 10.625C111.911 10.7604 111.938 10.9062 111.938 11.0625C111.938 11.2135 111.911 11.3568 111.859 11.4922C111.812 11.6224 111.74 11.737 111.641 11.8359C111.547 11.9349 111.427 12.0104 111.281 12.0625C111.141 12.1198 110.977 12.1484 110.789 12.1484C110.602 12.1484 110.438 12.1198 110.297 12.0625C110.156 12.0104 110.039 11.9349 109.945 11.8359C109.852 11.737 109.779 11.6224 109.727 11.4922C109.68 11.3568 109.656 11.2135 109.656 11.0625ZM109.656 4.21875C109.656 4.0625 109.68 3.91667 109.727 3.78125C109.779 3.64583 109.852 3.52865 109.945 3.42969C110.039 3.32552 110.156 3.24479 110.297 3.1875C110.438 3.13021 110.602 3.10156 110.789 3.10156C110.977 3.10156 111.141 3.13021 111.281 3.1875C111.427 3.24479 111.547 3.32552 111.641 3.42969C111.74 3.52865 111.812 3.64583 111.859 3.78125C111.911 3.91667 111.938 4.0625 111.938 4.21875C111.938 4.36979 111.911 4.51302 111.859 4.64844C111.812 4.77865 111.74 4.89323 111.641 4.99219C111.547 5.09115 111.427 5.16927 111.281 5.22656C111.141 5.27865 110.977 5.30469 110.789 5.30469C110.602 5.30469 110.438 5.27865 110.297 5.22656C110.156 5.16927 110.039 5.09115 109.945 4.99219C109.852 4.89323 109.779 4.77865 109.727 4.64844C109.68 4.51302 109.656 4.36979 109.656 4.21875Z" fill="#808082"/>
</svg>
