<svg width="64" height="13" viewBox="0 0 64 16" fill="none" xmlns="http://www.w3.org/2000/svg">
<path d="M0.828125 7.70312C0.828125 7.07292 0.903646 6.49479 1.05469 5.96875C1.21094 5.4375 1.4349 4.98177 1.72656 4.60156C2.01823 4.22135 2.3724 3.92448 2.78906 3.71094C3.20573 3.4974 3.67708 3.39062 4.20312 3.39062C4.72396 3.39062 5.17969 3.48438 5.57031 3.67188C5.96615 3.85417 6.30208 4.11979 6.57812 4.46875L6.64844 3.54688H7.96094V11.8203C7.96094 12.3776 7.8724 12.8724 7.69531 13.3047C7.52344 13.737 7.27865 14.1042 6.96094 14.4062C6.64844 14.7083 6.27344 14.9375 5.83594 15.0938C5.39844 15.25 4.91406 15.3281 4.38281 15.3281C4.16406 15.3281 3.91406 15.3021 3.63281 15.25C3.35156 15.2031 3.0651 15.1224 2.77344 15.0078C2.48698 14.8984 2.20833 14.75 1.9375 14.5625C1.67188 14.375 1.44271 14.1432 1.25 13.8672L2 13C2.17708 13.2135 2.35938 13.3932 2.54688 13.5391C2.73438 13.6901 2.92448 13.8099 3.11719 13.8984C3.3099 13.987 3.5026 14.0495 3.69531 14.0859C3.88802 14.1276 4.08073 14.1484 4.27344 14.1484C4.61719 14.1484 4.92708 14.099 5.20312 14C5.47917 13.901 5.71354 13.7552 5.90625 13.5625C6.10417 13.375 6.25521 13.1406 6.35938 12.8594C6.46354 12.5781 6.51562 12.2552 6.51562 11.8906V11.1641C6.23438 11.487 5.90104 11.7344 5.51562 11.9062C5.13542 12.0729 4.69271 12.1562 4.1875 12.1562C3.67188 12.1562 3.20573 12.0469 2.78906 11.8281C2.3724 11.6094 2.01823 11.3073 1.72656 10.9219C1.4401 10.5365 1.21875 10.0833 1.0625 9.5625C0.90625 9.03646 0.828125 8.47135 0.828125 7.86719V7.70312ZM2.27344 7.86719C2.27344 8.27865 2.3151 8.66927 2.39844 9.03906C2.48698 9.40885 2.6224 9.73438 2.80469 10.0156C2.99219 10.2969 3.22917 10.5208 3.51562 10.6875C3.80208 10.849 4.14583 10.9297 4.54688 10.9297C4.79688 10.9297 5.02083 10.901 5.21875 10.8438C5.42188 10.7812 5.60156 10.6953 5.75781 10.5859C5.91927 10.4766 6.0625 10.3464 6.1875 10.1953C6.3125 10.0443 6.42188 9.8776 6.51562 9.69531V5.82031C6.42188 5.64323 6.3125 5.48177 6.1875 5.33594C6.0625 5.1901 5.91927 5.0651 5.75781 4.96094C5.59635 4.85156 5.41667 4.76823 5.21875 4.71094C5.02083 4.64844 4.80208 4.61719 4.5625 4.61719C4.15625 4.61719 3.80729 4.70052 3.51562 4.86719C3.22917 5.03385 2.99219 5.26042 2.80469 5.54688C2.6224 5.82812 2.48698 6.15625 2.39844 6.53125C2.3151 6.90104 2.27344 7.29167 2.27344 7.70312V7.86719ZM10.9297 3.54688H15.25V10.75H18.0078V12H10.9297V10.75H13.8047V4.80469H10.9297V3.54688ZM13.6172 1.32812C13.6172 1.08854 13.6875 0.888021 13.8281 0.726562C13.974 0.559896 14.1927 0.476562 14.4844 0.476562C14.7708 0.476562 14.987 0.559896 15.1328 0.726562C15.2786 0.888021 15.3516 1.08854 15.3516 1.32812C15.3516 1.5625 15.2786 1.75781 15.1328 1.91406C14.987 2.07031 14.7708 2.14844 14.4844 2.14844C14.1927 2.14844 13.974 2.07031 13.8281 1.91406C13.6875 1.75781 13.6172 1.5625 13.6172 1.32812ZM23.7344 1.5V3.54688H26.9531V4.66406H23.7344V9.25781C23.7344 9.58594 23.776 9.85677 23.8594 10.0703C23.9427 10.2839 24.0573 10.4557 24.2031 10.5859C24.349 10.7109 24.5156 10.7995 24.7031 10.8516C24.8958 10.9036 25.099 10.9297 25.3125 10.9297C25.4688 10.9297 25.6302 10.9219 25.7969 10.9062C25.9635 10.8854 26.125 10.862 26.2812 10.8359C26.4427 10.8099 26.5911 10.7839 26.7266 10.7578C26.8672 10.7266 26.9818 10.7005 27.0703 10.6797L27.2734 11.7031C27.1536 11.776 27.0078 11.8411 26.8359 11.8984C26.6641 11.9505 26.4766 11.9948 26.2734 12.0312C26.0703 12.0729 25.8542 12.1042 25.625 12.125C25.401 12.1458 25.1771 12.1562 24.9531 12.1562C24.5781 12.1562 24.2266 12.1042 23.8984 12C23.5755 11.8906 23.2943 11.7214 23.0547 11.4922C22.8151 11.2578 22.625 10.9583 22.4844 10.5938C22.349 10.224 22.2812 9.77865 22.2812 9.25781V4.66406H20.0625V3.54688H22.2812V1.5H23.7344ZM31.3672 4.80469C31.6693 4.36198 32.0417 4.01823 32.4844 3.77344C32.9271 3.52344 33.4245 3.39583 33.9766 3.39062C34.4193 3.39062 34.8203 3.45573 35.1797 3.58594C35.5443 3.71094 35.8542 3.90885 36.1094 4.17969C36.3646 4.45052 36.5599 4.79427 36.6953 5.21094C36.8359 5.6224 36.9062 6.11198 36.9062 6.67969V12H35.4609V6.66406C35.4609 5.97135 35.2943 5.45573 34.9609 5.11719C34.6328 4.77865 34.1615 4.61198 33.5469 4.61719C33.0833 4.61719 32.6615 4.73177 32.2812 4.96094C31.9062 5.1849 31.6016 5.48438 31.3672 5.85938V12H29.9219V0H31.3672V4.80469ZM45.0156 10.8359C44.7344 11.2526 44.3828 11.5781 43.9609 11.8125C43.5391 12.0417 43.0521 12.1562 42.5 12.1562C42.0573 12.1562 41.6562 12.0885 41.2969 11.9531C40.9375 11.8125 40.6302 11.5964 40.375 11.3047C40.1198 11.013 39.9219 10.6432 39.7812 10.1953C39.6458 9.74219 39.5781 9.20052 39.5781 8.57031V3.54688H41.0234V8.58594C41.0234 9.04427 41.0599 9.42448 41.1328 9.72656C41.2057 10.0286 41.3151 10.2708 41.4609 10.4531C41.6068 10.6302 41.7839 10.7552 41.9922 10.8281C42.2057 10.901 42.4505 10.9375 42.7266 10.9375C43.3151 10.9375 43.7891 10.8177 44.1484 10.5781C44.513 10.3385 44.7839 10.0156 44.9609 9.60938V3.54688H46.4141V12H45.1016L45.0156 10.8359ZM56.3047 7.86719C56.3047 8.47135 56.2318 9.03646 56.0859 9.5625C55.9401 10.0833 55.7266 10.5365 55.4453 10.9219C55.1641 11.3073 54.8151 11.6094 54.3984 11.8281C53.987 12.0469 53.513 12.1562 52.9766 12.1562C52.4349 12.1562 51.9635 12.0599 51.5625 11.8672C51.1667 11.6745 50.8281 11.3984 50.5469 11.0391L50.4766 12H49.1484V0H50.5938V4.45312C50.8698 4.10938 51.2031 3.84635 51.5938 3.66406C51.9844 3.48177 52.4401 3.39062 52.9609 3.39062C53.5026 3.39062 53.9818 3.4974 54.3984 3.71094C54.8151 3.92448 55.1641 4.22135 55.4453 4.60156C55.7266 4.98177 55.9401 5.4375 56.0859 5.96875C56.2318 6.49479 56.3047 7.07292 56.3047 7.70312V7.86719ZM54.8594 7.70312C54.8594 7.29167 54.8177 6.90104 54.7344 6.53125C54.6562 6.15625 54.5286 5.82812 54.3516 5.54688C54.1745 5.26042 53.9427 5.03385 53.6562 4.86719C53.3698 4.70052 53.0182 4.61719 52.6016 4.61719C52.3516 4.61719 52.1224 4.65104 51.9141 4.71875C51.7057 4.78125 51.5182 4.8724 51.3516 4.99219C51.1901 5.10677 51.0443 5.24479 50.9141 5.40625C50.7891 5.5625 50.6823 5.73438 50.5938 5.92188V9.61719C50.6875 9.80469 50.7969 9.97917 50.9219 10.1406C51.0521 10.2969 51.2005 10.4349 51.3672 10.5547C51.5339 10.6745 51.7214 10.7682 51.9297 10.8359C52.138 10.8984 52.3672 10.9297 52.6172 10.9297C53.013 10.9297 53.3516 10.849 53.6328 10.6875C53.9193 10.5208 54.151 10.2969 54.3281 10.0156C54.5104 9.73438 54.6432 9.40885 54.7266 9.03906C54.8151 8.66927 54.8594 8.27865 54.8594 7.86719V7.70312ZM61.6562 11.0625C61.6562 10.9062 61.6797 10.7604 61.7266 10.625C61.7786 10.4896 61.8516 10.3724 61.9453 10.2734C62.0391 10.1693 62.1562 10.0885 62.2969 10.0312C62.4375 9.97396 62.6016 9.94531 62.7891 9.94531C62.9766 9.94531 63.1406 9.97396 63.2812 10.0312C63.4271 10.0885 63.5469 10.1693 63.6406 10.2734C63.7396 10.3724 63.8125 10.4896 63.8594 10.625C63.9115 10.7604 63.9375 10.9062 63.9375 11.0625C63.9375 11.2135 63.9115 11.3568 63.8594 11.4922C63.8125 11.6224 63.7396 11.737 63.6406 11.8359C63.5469 11.9349 63.4271 12.0104 63.2812 12.0625C63.1406 12.1198 62.9766 12.1484 62.7891 12.1484C62.6016 12.1484 62.4375 12.1198 62.2969 12.0625C62.1562 12.0104 62.0391 11.9349 61.9453 11.8359C61.8516 11.737 61.7786 11.6224 61.7266 11.4922C61.6797 11.3568 61.6562 11.2135 61.6562 11.0625ZM61.6562 4.21875C61.6562 4.0625 61.6797 3.91667 61.7266 3.78125C61.7786 3.64583 61.8516 3.52865 61.9453 3.42969C62.0391 3.32552 62.1562 3.24479 62.2969 3.1875C62.4375 3.13021 62.6016 3.10156 62.7891 3.10156C62.9766 3.10156 63.1406 3.13021 63.2812 3.1875C63.4271 3.24479 63.5469 3.32552 63.6406 3.42969C63.7396 3.52865 63.8125 3.64583 63.8594 3.78125C63.9115 3.91667 63.9375 4.0625 63.9375 4.21875C63.9375 4.36979 63.9115 4.51302 63.8594 4.64844C63.8125 4.77865 63.7396 4.89323 63.6406 4.99219C63.5469 5.09115 63.4271 5.16927 63.2812 5.22656C63.1406 5.27865 62.9766 5.30469 62.7891 5.30469C62.6016 5.30469 62.4375 5.27865 62.2969 5.22656C62.1562 5.16927 62.0391 5.09115 61.9453 4.99219C61.8516 4.89323 61.7786 4.77865 61.7266 4.64844C61.6797 4.51302 61.6562 4.36979 61.6562 4.21875Z" fill="#808082"/>
</svg>
