<svg width="73" height="13" viewBox="0 0 73 16" fill="none" xmlns="http://www.w3.org/2000/svg">
<path d="M7.61719 7.86719C7.61719 8.47135 7.54427 9.03646 7.39844 9.5625C7.2526 10.0833 7.03906 10.5365 6.75781 10.9219C6.47656 11.3073 6.1276 11.6094 5.71094 11.8281C5.29948 12.0469 4.82812 12.1562 4.29688 12.1562C3.78125 12.1562 3.32552 12.0729 2.92969 11.9062C2.53906 11.7396 2.20312 11.5 1.92188 11.1875V15.25H0.476562V3.54688H1.79688L1.86719 4.46875C2.14844 4.11979 2.48698 3.85417 2.88281 3.67188C3.28385 3.48438 3.7474 3.39062 4.27344 3.39062C4.8151 3.39062 5.29427 3.4974 5.71094 3.71094C6.1276 3.92448 6.47656 4.22135 6.75781 4.60156C7.03906 4.98177 7.2526 5.4375 7.39844 5.96875C7.54427 6.49479 7.61719 7.07292 7.61719 7.70312V7.86719ZM6.17188 7.70312C6.17188 7.29167 6.125 6.90104 6.03125 6.53125C5.94271 6.15625 5.80208 5.82812 5.60938 5.54688C5.42188 5.26042 5.18229 5.03385 4.89062 4.86719C4.59896 4.70052 4.25 4.61719 3.84375 4.61719C3.38021 4.61719 2.98958 4.72656 2.67188 4.94531C2.35938 5.15885 2.10938 5.4349 1.92188 5.77344V9.84375C2.10938 10.1771 2.35938 10.4505 2.67188 10.6641C2.98438 10.8724 3.38021 10.9766 3.85938 10.9766C4.26042 10.9766 4.60677 10.8932 4.89844 10.7266C5.1901 10.5547 5.42969 10.3255 5.61719 10.0391C5.80469 9.7526 5.94271 9.42188 6.03125 9.04688C6.125 8.67188 6.17188 8.27865 6.17188 7.86719V7.70312ZM15.6328 3.39062C15.7682 3.39062 15.9089 3.39583 16.0547 3.40625C16.2005 3.41146 16.3385 3.42448 16.4688 3.44531C16.6042 3.46094 16.7266 3.48177 16.8359 3.50781C16.9505 3.53385 17.0443 3.5625 17.1172 3.59375L16.9219 5.00781C16.6406 4.94531 16.3724 4.90104 16.1172 4.875C15.8672 4.84375 15.6042 4.82812 15.3281 4.82812C14.651 4.82812 14.1016 4.98177 13.6797 5.28906C13.263 5.59635 12.9557 6.02604 12.7578 6.57812V12H11.3047V3.54688H12.6797L12.75 4.89062C13.0938 4.42708 13.5052 4.0625 13.9844 3.79688C14.4688 3.52604 15.0182 3.39062 15.6328 3.39062ZM19.2969 7.69531C19.2969 7.08594 19.3854 6.52083 19.5625 6C19.7396 5.47396 19.9922 5.01823 20.3203 4.63281C20.6536 4.2474 21.0573 3.94531 21.5312 3.72656C22.0052 3.5026 22.5391 3.39062 23.1328 3.39062C23.7318 3.39062 24.2682 3.5026 24.7422 3.72656C25.2214 3.94531 25.625 4.2474 25.9531 4.63281C26.2865 5.01823 26.5417 5.47396 26.7188 6C26.8958 6.52083 26.9844 7.08594 26.9844 7.69531V7.86719C26.9844 8.47656 26.8958 9.04167 26.7188 9.5625C26.5417 10.0833 26.2865 10.5365 25.9531 10.9219C25.625 11.3073 25.224 11.6094 24.75 11.8281C24.276 12.0469 23.7422 12.1562 23.1484 12.1562C22.5495 12.1562 22.0104 12.0469 21.5312 11.8281C21.0573 11.6094 20.6536 11.3073 20.3203 10.9219C19.9922 10.5365 19.7396 10.0833 19.5625 9.5625C19.3854 9.04167 19.2969 8.47656 19.2969 7.86719V7.69531ZM20.7422 7.86719C20.7422 8.28385 20.7917 8.68229 20.8906 9.0625C20.9896 9.4375 21.138 9.76823 21.3359 10.0547C21.5391 10.3411 21.7917 10.5677 22.0938 10.7344C22.3958 10.901 22.7474 10.9844 23.1484 10.9844C23.5443 10.9844 23.8906 10.901 24.1875 10.7344C24.4896 10.5677 24.7396 10.3411 24.9375 10.0547C25.1406 9.76823 25.2917 9.4375 25.3906 9.0625C25.4896 8.68229 25.5391 8.28385 25.5391 7.86719V7.69531C25.5391 7.28385 25.487 6.89062 25.3828 6.51562C25.2839 6.13542 25.1328 5.80208 24.9297 5.51562C24.7318 5.22917 24.4818 5.0026 24.1797 4.83594C23.8828 4.66406 23.5339 4.57812 23.1328 4.57812C22.7318 4.57812 22.3828 4.66406 22.0859 4.83594C21.7891 5.0026 21.5391 5.22917 21.3359 5.51562C21.138 5.80208 20.9896 6.13542 20.8906 6.51562C20.7917 6.89062 20.7422 7.28385 20.7422 7.69531V7.86719ZM30.2891 3.54688H34.5547V12.0547C34.5547 12.5964 34.4792 13.0755 34.3281 13.4922C34.1823 13.9089 33.9661 14.2578 33.6797 14.5391C33.3984 14.8255 33.0521 15.0417 32.6406 15.1875C32.2344 15.3385 31.7708 15.4141 31.25 15.4141C30.9531 15.4141 30.6745 15.4036 30.4141 15.3828C30.1589 15.3672 29.888 15.3333 29.6016 15.2812L29.7031 14.0938C29.7917 14.1094 29.9036 14.1224 30.0391 14.1328C30.1745 14.1484 30.3099 14.1589 30.4453 14.1641C30.5859 14.1745 30.7188 14.1797 30.8438 14.1797C30.974 14.1849 31.0755 14.1875 31.1484 14.1875C31.4193 14.1875 31.6745 14.151 31.9141 14.0781C32.1536 14.0104 32.362 13.8932 32.5391 13.7266C32.7161 13.5599 32.8542 13.3385 32.9531 13.0625C33.0573 12.7917 33.1094 12.4557 33.1094 12.0547V4.80469H30.2891V3.54688ZM32.9062 1.32031C32.9062 1.08594 32.9766 0.888021 33.1172 0.726562C33.2578 0.559896 33.474 0.476562 33.7656 0.476562C34.0573 0.476562 34.276 0.559896 34.4219 0.726562C34.5677 0.888021 34.6406 1.08594 34.6406 1.32031C34.6406 1.55469 34.5677 1.7526 34.4219 1.91406C34.276 2.07031 34.0573 2.14844 33.7656 2.14844C33.474 2.14844 33.2578 2.07031 33.1172 1.91406C32.9766 1.7526 32.9062 1.55469 32.9062 1.32031ZM42.6562 12.1562C42.0625 12.1562 41.5156 12.0547 41.0156 11.8516C40.5208 11.6484 40.0964 11.3646 39.7422 11C39.388 10.6354 39.112 10.2031 38.9141 9.70312C38.7161 9.20312 38.6172 8.65885 38.6172 8.07031V7.74219C38.6172 7.0599 38.7266 6.45052 38.9453 5.91406C39.1641 5.3724 39.4531 4.91667 39.8125 4.54688C40.1771 4.17188 40.5885 3.88542 41.0469 3.6875C41.5104 3.48958 41.9844 3.39062 42.4688 3.39062C43.0781 3.39062 43.6094 3.4974 44.0625 3.71094C44.5208 3.91927 44.901 4.21094 45.2031 4.58594C45.5052 4.95573 45.7292 5.39323 45.875 5.89844C46.026 6.40365 46.1016 6.95052 46.1016 7.53906V8.1875H40.0625C40.0781 8.57292 40.151 8.9349 40.2812 9.27344C40.4167 9.61198 40.599 9.90885 40.8281 10.1641C41.0625 10.4141 41.3411 10.612 41.6641 10.7578C41.987 10.9036 42.3438 10.9766 42.7344 10.9766C43.25 10.9766 43.7083 10.8724 44.1094 10.6641C44.5104 10.4557 44.8438 10.1797 45.1094 9.83594L45.9922 10.5234C45.8516 10.737 45.6745 10.9427 45.4609 11.1406C45.2526 11.3333 45.0104 11.5052 44.7344 11.6562C44.4583 11.8073 44.1458 11.9271 43.7969 12.0156C43.4479 12.1094 43.0677 12.1562 42.6562 12.1562ZM42.4688 4.57812C42.1771 4.57812 41.901 4.63281 41.6406 4.74219C41.3802 4.84635 41.1458 5.0026 40.9375 5.21094C40.7292 5.41406 40.5521 5.66667 40.4062 5.96875C40.2656 6.26562 40.1667 6.60938 40.1094 7H44.6562V6.89062C44.6406 6.60938 44.5859 6.33073 44.4922 6.05469C44.4036 5.77865 44.2708 5.53125 44.0938 5.3125C43.9167 5.09375 43.6927 4.91667 43.4219 4.78125C43.1562 4.64583 42.8385 4.57812 42.4688 4.57812ZM52.1328 10.9844C52.3932 10.9844 52.6458 10.9427 52.8906 10.8594C53.1406 10.776 53.362 10.6615 53.5547 10.5156C53.7474 10.3646 53.901 10.1901 54.0156 9.99219C54.1354 9.78906 54.1979 9.57031 54.2031 9.33594H55.5703C55.5651 9.71094 55.4661 10.0703 55.2734 10.4141C55.0859 10.7526 54.8333 11.0521 54.5156 11.3125C54.1979 11.5677 53.8333 11.7734 53.4219 11.9297C53.0104 12.0807 52.5807 12.1562 52.1328 12.1562C51.4922 12.1562 50.9323 12.0417 50.4531 11.8125C49.974 11.5833 49.5729 11.276 49.25 10.8906C48.9323 10.5 48.6927 10.0521 48.5312 9.54688C48.3698 9.03646 48.2891 8.5 48.2891 7.9375V7.60938C48.2891 7.05208 48.3698 6.51823 48.5312 6.00781C48.6927 5.4974 48.9323 5.04948 49.25 4.66406C49.5729 4.27344 49.974 3.96354 50.4531 3.73438C50.9323 3.50521 51.4922 3.39062 52.1328 3.39062C52.6328 3.39062 53.0911 3.47135 53.5078 3.63281C53.9297 3.78906 54.2917 4.00521 54.5938 4.28125C54.901 4.55208 55.1406 4.875 55.3125 5.25C55.4844 5.625 55.5703 6.02604 55.5703 6.45312H54.2031C54.1979 6.19792 54.1406 5.95833 54.0312 5.73438C53.9271 5.50521 53.7839 5.30469 53.6016 5.13281C53.4193 4.96094 53.2005 4.82552 52.9453 4.72656C52.6953 4.6276 52.4245 4.57812 52.1328 4.57812C51.6849 4.57812 51.3073 4.66927 51 4.85156C50.6979 5.02865 50.4531 5.26302 50.2656 5.55469C50.0781 5.84115 49.9427 6.16406 49.8594 6.52344C49.7812 6.88281 49.7422 7.24479 49.7422 7.60938V7.9375C49.7422 8.30729 49.7812 8.67448 49.8594 9.03906C49.9427 9.39844 50.0755 9.72396 50.2578 10.0156C50.4453 10.3021 50.6901 10.5365 50.9922 10.7188C51.2995 10.8958 51.6797 10.9844 52.1328 10.9844ZM61.5625 1.5V3.54688H64.7812V4.66406H61.5625V9.25781C61.5625 9.58594 61.6042 9.85677 61.6875 10.0703C61.7708 10.2839 61.8854 10.4557 62.0312 10.5859C62.1771 10.7109 62.3438 10.7995 62.5312 10.8516C62.724 10.9036 62.9271 10.9297 63.1406 10.9297C63.2969 10.9297 63.4583 10.9219 63.625 10.9062C63.7917 10.8854 63.9531 10.862 64.1094 10.8359C64.2708 10.8099 64.4193 10.7839 64.5547 10.7578C64.6953 10.7266 64.8099 10.7005 64.8984 10.6797L65.1016 11.7031C64.9818 11.776 64.8359 11.8411 64.6641 11.8984C64.4922 11.9505 64.3047 11.9948 64.1016 12.0312C63.8984 12.0729 63.6823 12.1042 63.4531 12.125C63.2292 12.1458 63.0052 12.1562 62.7812 12.1562C62.4062 12.1562 62.0547 12.1042 61.7266 12C61.4036 11.8906 61.1224 11.7214 60.8828 11.4922C60.6432 11.2578 60.4531 10.9583 60.3125 10.5938C60.1771 10.224 60.1094 9.77865 60.1094 9.25781V4.66406H57.8906V3.54688H60.1094V1.5H61.5625ZM70.6562 11.0625C70.6562 10.9062 70.6797 10.7604 70.7266 10.625C70.7786 10.4896 70.8516 10.3724 70.9453 10.2734C71.0391 10.1693 71.1562 10.0885 71.2969 10.0312C71.4375 9.97396 71.6016 9.94531 71.7891 9.94531C71.9766 9.94531 72.1406 9.97396 72.2812 10.0312C72.4271 10.0885 72.5469 10.1693 72.6406 10.2734C72.7396 10.3724 72.8125 10.4896 72.8594 10.625C72.9115 10.7604 72.9375 10.9062 72.9375 11.0625C72.9375 11.2135 72.9115 11.3568 72.8594 11.4922C72.8125 11.6224 72.7396 11.737 72.6406 11.8359C72.5469 11.9349 72.4271 12.0104 72.2812 12.0625C72.1406 12.1198 71.9766 12.1484 71.7891 12.1484C71.6016 12.1484 71.4375 12.1198 71.2969 12.0625C71.1562 12.0104 71.0391 11.9349 70.9453 11.8359C70.8516 11.737 70.7786 11.6224 70.7266 11.4922C70.6797 11.3568 70.6562 11.2135 70.6562 11.0625ZM70.6562 4.21875C70.6562 4.0625 70.6797 3.91667 70.7266 3.78125C70.7786 3.64583 70.8516 3.52865 70.9453 3.42969C71.0391 3.32552 71.1562 3.24479 71.2969 3.1875C71.4375 3.13021 71.6016 3.10156 71.7891 3.10156C71.9766 3.10156 72.1406 3.13021 72.2812 3.1875C72.4271 3.24479 72.5469 3.32552 72.6406 3.42969C72.7396 3.52865 72.8125 3.64583 72.8594 3.78125C72.9115 3.91667 72.9375 4.0625 72.9375 4.21875C72.9375 4.36979 72.9115 4.51302 72.8594 4.64844C72.8125 4.77865 72.7396 4.89323 72.6406 4.99219C72.5469 5.09115 72.4271 5.16927 72.2812 5.22656C72.1406 5.27865 71.9766 5.30469 71.7891 5.30469C71.6016 5.30469 71.4375 5.27865 71.2969 5.22656C71.1562 5.16927 71.0391 5.09115 70.9453 4.99219C70.8516 4.89323 70.7786 4.77865 70.7266 4.64844C70.6797 4.51302 70.6562 4.36979 70.6562 4.21875Z" fill="#808082"/>
</svg>
